<mxfile host="app.diagrams.net" modified="2023-08-24T12:09:48.148Z" agent="Mozilla/5.0 (Windows NT 10.0; Win64; x64) AppleWebKit/537.36 (KHTML, like Gecko) Chrome/116.0.0.0 Safari/537.36" version="21.6.9" etag="BdZr6at6VqNm9-zFqomZ" type="github">
  <diagram name="PÃ¡gina-1" id="C6uN4H-Dr8jjpbs1rT7D">
    <mxGraphModel>
      <root>
        <mxCell id="0" />
        <mxCell id="1" parent="0" />
      </root>
    </mxGraphModel>
  </diagram>
</mxfile>
